<?xml version="1.0" standalone="no"?>
<!DOCTYPE svg PUBLIC "-//W3C//DTD SVG 20010904//EN"
 "http://www.w3.org/TR/2001/REC-SVG-20010904/DTD/svg10.dtd">
<svg version="1.0" xmlns="http://www.w3.org/2000/svg"
 width="700.000000pt" height="700.000000pt" viewBox="0 0 700.000000 700.000000"
 preserveAspectRatio="xMidYMid meet">
<metadata>
Created by potrace 1.14, written by Peter Selinger 2001-2017
</metadata>
<g transform="translate(0.000000,700.000000) scale(0.100000,-0.100000)"
fill="#000000" stroke="none">
<path d="M3298 6295 c-2 -2 -37 -6 -78 -10 -286 -25 -654 -125 -903 -247 -43
-21 -80 -38 -82 -38 -2 0 -59 -32 -127 -71 -592 -344 -1023 -863 -1251 -1504
-35 -97 -81 -259 -92 -320 -2 -16 -7 -41 -10 -55 -6 -31 -22 -122 -29 -170
-15 -93 -21 -202 -21 -380 0 -244 9 -340 51 -560 16 -80 48 -201 79 -300 314
-969 1136 -1697 2135 -1889 196 -38 286 -46 515 -46 234 0 356 10 518 41 42 9
87 17 100 20 53 10 69 14 171 43 224 65 490 181 682 299 384 235 708 561 943
950 60 99 166 307 188 367 6 17 23 62 38 100 14 39 28 77 30 85 3 8 18 59 34
113 36 120 65 256 87 407 19 130 27 511 13 625 -4 39 -11 90 -13 115 -3 25
-13 84 -22 130 -9 47 -18 96 -20 110 -38 213 -200 618 -332 830 -76 122 -191
284 -250 352 -377 439 -819 731 -1352 891 -114 35 -275 71 -359 82 -23 3 -57
8 -74 10 -17 3 -51 8 -76 11 -50 6 -488 14 -493 9z"/>
</g>
</svg>
